<svg width="31" height="28" viewBox="0 0 31 28" fill="none" xmlns="http://www.w3.org/2000/svg">
<path d="M27.2872 4.14666C26.6061 3.46533 25.7976 2.92485 24.9076 2.5561C24.0177 2.18735 23.0638 1.99756 22.1005 1.99756C21.1372 1.99756 20.1833 2.18735 19.2933 2.5561C18.4034 2.92485 17.5948 3.46533 16.9138 4.14666L15.5005 5.55999L14.0872 4.14666C12.7116 2.77107 10.8459 1.99827 8.90048 1.99827C6.95511 1.99827 5.08941 2.77107 3.71382 4.14666C2.33823 5.52225 1.56543 7.38795 1.56543 9.33333C1.56543 11.2787 2.33823 13.1444 3.71382 14.52L5.12715 15.9333L15.5005 26.3067L25.8738 15.9333L27.2872 14.52C27.9685 13.839 28.509 13.0304 28.8777 12.1405C29.2465 11.2505 29.4363 10.2966 29.4363 9.33333C29.4363 8.37001 29.2465 7.41613 28.8777 6.52619C28.509 5.63624 27.9685 4.82767 27.2872 4.14666V4.14666Z" stroke="#767676" stroke-width="2" stroke-linecap="round" stroke-linejoin="round"/>
</svg>
