<svg width="33" height="32" viewBox="0 0 33 32" fill="none" xmlns="http://www.w3.org/2000/svg">
<path d="M17.7867 1.93334L28.4533 7.26667C28.8976 7.48744 29.2715 7.82777 29.533 8.2494C29.7944 8.67102 29.9331 9.15723 29.9333 9.65334V22.36C29.9331 22.8561 29.7944 23.3423 29.533 23.7639C29.2715 24.1856 28.8976 24.5259 28.4533 24.7467L17.7867 30.08C17.4162 30.2654 17.0076 30.3619 16.5933 30.3619C16.1791 30.3619 15.7705 30.2654 15.4 30.08L4.73333 24.7467C4.2895 24.523 3.917 24.1798 3.65785 23.7558C3.3987 23.3317 3.26321 22.8436 3.26667 22.3467V9.65334C3.26693 9.15723 3.40558 8.67102 3.66704 8.2494C3.92849 7.82777 4.30238 7.48744 4.74667 7.26667L15.4133 1.93334C15.7821 1.75011 16.1882 1.65475 16.6 1.65475C17.0118 1.65475 17.4179 1.75011 17.7867 1.93334V1.93334Z" stroke="#111111" stroke-width="2" stroke-linecap="round" stroke-linejoin="round"/>
<path d="M3.69334 8.21333L16.6 14.6667L29.5067 8.21333" stroke="#111111" stroke-width="2" stroke-linecap="round" stroke-linejoin="round"/>
<path d="M16.6 30.3467V14.6667" stroke="#111111" stroke-width="2" stroke-linecap="round" stroke-linejoin="round"/>
</svg>
